<svg width="597" height="464" viewBox="0 0 597 464" fill="none" xmlns="http://www.w3.org/2000/svg">
<g filter="url(#filter0_f_215_4)">
<ellipse cx="390.064" cy="349.194" rx="152.664" ry="60.8061" fill="#0A151B"/>
</g>
<g filter="url(#filter1_f_215_4)">
<ellipse cx="158.109" cy="184.899" rx="104.109" ry="41.4667" fill="#0A151B"/>
</g>
<path d="M543.313 278.783V290.786C542.885 291.141 424.941 359.722 424.941 359.722C421.869 361.508 417.583 362.08 413.583 361.725L413.654 349.795C417.654 350.221 421.869 349.51 424.941 347.724C424.941 347.724 542.885 279.142 543.313 278.783Z" fill="#BFBFBF"/>
<path d="M533.694 288.687V292.172L524.409 297.584V294.098L533.694 288.687Z" fill="#787677"/>
<path d="M522.427 295.259V298.745L513.141 304.157V300.671L522.427 295.259Z" fill="#787677"/>
<path d="M234.706 241.87L406.406 347.709C408.445 348.877 410.999 349.446 413.619 349.691V361.731C410.988 361.489 408.429 360.916 406.406 359.741L234.706 253.903C232.123 252.428 230.867 250.507 230.867 248.589V236.553C230.867 238.474 232.123 240.396 234.706 241.87Z" fill="#B0AFB0"/>
<path d="M537.282 271.558C542.42 274.524 542.447 279.314 537.342 282.28L424.927 347.716C419.822 350.682 411.554 350.682 406.416 347.716L234.704 241.912C229.613 238.973 229.586 234.184 234.69 231.217L340.373 169.3C345.477 166.334 353.745 166.334 358.836 169.273L537.282 271.558Z" fill="#E8E8E8"/>
<path d="M340.101 21.3952C342.168 20.2129 345.047 20.3608 348.222 22.206L521.907 122.505C528.256 126.196 533.35 134.981 533.276 142.291L532.907 284.842L543.316 278.79L543.685 136.236C543.685 128.929 538.665 120.144 532.316 116.453L358.557 16.1538C355.456 14.3078 352.577 14.1607 350.51 15.3394L340.101 21.3952Z" fill="#787677"/>
<path d="M521.924 122.517C528.24 126.163 533.315 135.005 533.294 142.263L532.889 284.867L336.338 171.388L336.742 28.784C336.763 21.5259 341.87 18.562 348.186 22.2081L521.924 122.517Z" fill="#4F4D4D"/>
<path d="M525.911 142.242C525.925 137.593 522.263 131.238 518.233 128.911C518.233 128.911 344.25 28.4637 344.134 28.408C344.134 28.5273 343.73 167.133 343.73 167.133L525.543 272.102L525.911 142.242Z" fill="#D05C8B"/>
<path d="M525.912 142.242C525.926 137.593 522.264 131.238 518.234 128.911C518.234 128.911 344.251 28.4637 344.135 28.408C344.135 28.5273 525.544 272.101 525.544 272.101L525.912 142.242Z" fill="#A02E79"/>
<path d="M353.088 191.529L353.084 192.771L341.752 199.356L341.756 198.115L353.088 191.529Z" fill="#686868"/>
<path d="M341.755 198.115L341.752 199.356L330.377 192.789L330.38 191.548L341.755 198.115Z" fill="#4F4D4D"/>
<path d="M353.087 191.529L341.755 198.115L330.38 191.547L341.713 184.961L353.087 191.529Z" fill="#929393"/>
<path d="M367.314 199.742L367.31 200.984L355.978 207.57L355.981 206.328L367.314 199.742Z" fill="#686868"/>
<path d="M355.98 206.328L355.978 207.57L344.603 201.002L344.606 199.761L355.98 206.328Z" fill="#4F4D4D"/>
<path d="M367.313 199.742L355.98 206.328L344.606 199.761L355.939 193.175L367.313 199.742Z" fill="#929393"/>
<path d="M381.539 207.956L381.536 209.197L370.203 215.783L370.206 214.542L381.539 207.956Z" fill="#686868"/>
<path d="M370.206 214.542L370.203 215.783L358.796 209.197L358.8 207.956L370.206 214.542Z" fill="#4F4D4D"/>
<path d="M381.539 207.956L370.206 214.542L358.8 207.956L370.132 201.37L381.539 207.956Z" fill="#929393"/>
<path d="M395.733 216.15L395.73 217.391L384.397 223.977L384.401 222.736L395.733 216.15Z" fill="#686868"/>
<path d="M384.4 222.736L384.397 223.977L373.023 217.411L373.026 216.169L384.4 222.736Z" fill="#4F4D4D"/>
<path d="M395.734 216.15L384.401 222.736L373.027 216.169L384.359 209.583L395.734 216.15Z" fill="#929393"/>
<path d="M409.96 224.364L409.956 225.605L398.624 232.19L398.628 230.95L409.96 224.364Z" fill="#686868"/>
<path d="M398.628 230.95L398.624 232.191L387.25 225.624L387.253 224.383L398.628 230.95Z" fill="#4F4D4D"/>
<path d="M409.959 224.364L398.626 230.949L387.252 224.382L398.584 217.796L409.959 224.364Z" fill="#929393"/>
<path d="M424.152 232.558L424.148 233.799L412.816 240.385L412.82 239.144L424.152 232.558Z" fill="#686868"/>
<path d="M412.82 239.144L412.817 240.386L401.442 233.818L401.445 232.577L412.82 239.144Z" fill="#4F4D4D"/>
<path d="M424.152 232.558L412.82 239.144L401.445 232.577L412.778 225.991L424.152 232.558Z" fill="#929393"/>
<path d="M438.379 240.772L438.376 242.013L427.043 248.599L427.046 247.357L438.379 240.772Z" fill="#686868"/>
<path d="M427.046 247.357L427.042 248.599L415.668 242.032L415.671 240.791L427.046 247.357Z" fill="#4F4D4D"/>
<path d="M438.379 240.773L427.046 247.358L415.671 240.791L427.004 234.205L438.379 240.773Z" fill="#929393"/>
<path d="M466.798 257.18L466.794 258.421L455.494 264.989L455.497 263.747L466.798 257.18Z" fill="#686868"/>
<path d="M455.497 263.747L455.493 264.988L429.893 250.208L429.897 248.966L455.497 263.747Z" fill="#4F4D4D"/>
<path d="M466.798 257.18L455.497 263.747L429.897 248.967L441.197 242.399L466.798 257.18Z" fill="#929393"/>
<path d="M481.025 265.393L481.021 266.635L469.689 273.22L469.692 271.979L481.025 265.393Z" fill="#686868"/>
<path d="M469.692 271.979L469.688 273.22L458.281 266.635L458.284 265.393L469.692 271.979Z" fill="#4F4D4D"/>
<path d="M481.023 265.393L469.691 271.979L458.284 265.393L469.617 258.807L481.023 265.393Z" fill="#929393"/>
<path d="M495.219 273.588L495.215 274.829L483.883 281.415L483.886 280.174L495.219 273.588Z" fill="#686868"/>
<path d="M483.885 280.174L483.881 281.416L472.507 274.849L472.511 273.608L483.885 280.174Z" fill="#4F4D4D"/>
<path d="M495.218 273.588L483.885 280.174L472.51 273.607L483.843 267.021L495.218 273.588Z" fill="#929393"/>
<path d="M509.445 281.802L509.441 283.043L498.108 289.628L498.112 288.388L509.445 281.802Z" fill="#686868"/>
<path d="M498.11 288.388L498.107 289.629L486.733 283.061L486.736 281.821L498.11 288.388Z" fill="#4F4D4D"/>
<path d="M509.444 281.802L498.111 288.387L486.737 281.82L498.069 275.234L509.444 281.802Z" fill="#929393"/>
<path d="M338.341 200.097L338.337 201.339L327.036 207.906L327.04 206.665L338.341 200.097Z" fill="#686868"/>
<path d="M327.04 206.665L327.036 207.906L315.661 201.339L315.665 200.098L327.04 206.665Z" fill="#4F4D4D"/>
<path d="M338.341 200.097L327.04 206.665L315.665 200.098L326.967 193.531L338.341 200.097Z" fill="#929393"/>
<path d="M352.568 208.311L352.565 209.552L341.263 216.119L341.267 214.879L352.568 208.311Z" fill="#686868"/>
<path d="M341.266 214.879L341.262 216.119L329.888 209.553L329.892 208.311L341.266 214.879Z" fill="#4F4D4D"/>
<path d="M352.567 208.312L341.266 214.879L329.891 208.312L341.193 201.744L352.567 208.312Z" fill="#929393"/>
<path d="M366.794 216.525L366.79 217.766L355.489 224.334L355.492 223.093L366.794 216.525Z" fill="#686868"/>
<path d="M355.493 223.093L355.489 224.335L344.083 217.749L344.086 216.507L355.493 223.093Z" fill="#4F4D4D"/>
<path d="M366.794 216.525L355.492 223.093L344.086 216.507L355.386 209.939L366.794 216.525Z" fill="#929393"/>
<path d="M380.988 224.719L380.985 225.961L369.684 232.528L369.687 231.287L380.988 224.719Z" fill="#686868"/>
<path d="M369.687 231.286L369.683 232.528L358.309 225.961L358.312 224.72L369.687 231.286Z" fill="#4F4D4D"/>
<path d="M380.988 224.719L369.687 231.286L358.312 224.72L369.613 218.152L380.988 224.719Z" fill="#929393"/>
<path d="M395.213 232.933L395.21 234.174L383.909 240.742L383.913 239.501L395.213 232.933Z" fill="#686868"/>
<path d="M383.912 239.501L383.908 240.742L372.534 234.175L372.538 232.934L383.912 239.501Z" fill="#4F4D4D"/>
<path d="M395.213 232.933L383.913 239.501L372.538 232.933L383.839 226.366L395.213 232.933Z" fill="#929393"/>
<path d="M409.408 241.128L409.404 242.369L398.103 248.936L398.106 247.695L409.408 241.128Z" fill="#686868"/>
<path d="M398.107 247.695L398.103 248.936L386.729 242.369L386.733 241.128L398.107 247.695Z" fill="#4F4D4D"/>
<path d="M409.409 241.128L398.107 247.695L386.733 241.128L398.034 234.561L409.409 241.128Z" fill="#929393"/>
<path d="M423.635 249.341L423.631 250.581L412.33 257.149L412.333 255.908L423.635 249.341Z" fill="#686868"/>
<path d="M412.333 255.908L412.33 257.15L400.955 250.582L400.959 249.342L412.333 255.908Z" fill="#4F4D4D"/>
<path d="M423.634 249.341L412.332 255.908L400.958 249.342L412.26 242.774L423.634 249.341Z" fill="#929393"/>
<path d="M437.827 257.536L437.823 258.777L426.522 265.345L426.526 264.103L437.827 257.536Z" fill="#686868"/>
<path d="M426.525 264.103L426.521 265.345L415.147 258.777L415.151 257.536L426.525 264.103Z" fill="#4F4D4D"/>
<path d="M437.827 257.536L426.526 264.103L415.152 257.536L426.452 250.969L437.827 257.536Z" fill="#929393"/>
<path d="M452.052 265.749L452.049 266.991L440.748 273.558L440.752 272.317L452.052 265.749Z" fill="#686868"/>
<path d="M440.752 272.318L440.748 273.558L429.374 266.991L429.377 265.75L440.752 272.318Z" fill="#4F4D4D"/>
<path d="M452.052 265.749L440.751 272.317L429.377 265.75L440.678 259.183L452.052 265.749Z" fill="#929393"/>
<path d="M466.279 273.963L466.275 275.204L454.974 281.771L454.978 280.53L466.279 273.963Z" fill="#686868"/>
<path d="M454.978 280.53L454.975 281.771L443.568 275.185L443.571 273.945L454.978 280.53Z" fill="#4F4D4D"/>
<path d="M466.279 273.963L454.978 280.53L443.571 273.944L454.873 267.377L466.279 273.963Z" fill="#929393"/>
<path d="M480.473 282.157L480.469 283.398L469.168 289.965L469.171 288.724L480.473 282.157Z" fill="#686868"/>
<path d="M469.171 288.724L469.168 289.965L457.793 283.399L457.797 282.157L469.171 288.724Z" fill="#4F4D4D"/>
<path d="M480.473 282.157L469.172 288.725L457.798 282.157L469.099 275.59L480.473 282.157Z" fill="#929393"/>
<path d="M494.699 290.371L494.696 291.612L483.394 298.18L483.398 296.938L494.699 290.371Z" fill="#686868"/>
<path d="M483.397 296.938L483.394 298.179L472.019 291.612L472.023 290.371L483.397 296.938Z" fill="#4F4D4D"/>
<path d="M494.699 290.37L483.398 296.938L472.023 290.371L483.325 283.803L494.699 290.37Z" fill="#929393"/>
<path d="M323.629 208.686L323.625 209.926L297.58 225.062L297.584 223.821L323.629 208.686Z" fill="#686868"/>
<path d="M297.584 223.821L297.58 225.062L286.174 218.476L286.177 217.235L297.584 223.821Z" fill="#4F4D4D"/>
<path d="M323.629 208.685L297.584 223.821L286.178 217.235L312.222 202.1L323.629 208.685Z" fill="#929393"/>
<path d="M337.823 216.88L337.82 218.121L326.521 224.688L326.524 223.447L337.823 216.88Z" fill="#686868"/>
<path d="M326.524 223.447L326.52 224.688L315.146 218.121L315.15 216.88L326.524 223.447Z" fill="#4F4D4D"/>
<path d="M337.822 216.881L326.523 223.447L315.149 216.88L326.448 210.313L337.822 216.881Z" fill="#929393"/>
<path d="M352.048 225.094L352.045 226.335L340.745 232.902L340.749 231.66L352.048 225.094Z" fill="#686868"/>
<path d="M340.749 231.66L340.746 232.902L329.339 226.316L329.342 225.074L340.749 231.66Z" fill="#4F4D4D"/>
<path d="M352.048 225.094L340.749 231.66L329.342 225.075L340.641 218.508L352.048 225.094Z" fill="#929393"/>
<path d="M366.242 233.288L366.239 234.53L354.94 241.096L354.943 239.855L366.242 233.288Z" fill="#686868"/>
<path d="M354.942 239.855L354.938 241.096L343.564 234.529L343.568 233.288L354.942 239.855Z" fill="#4F4D4D"/>
<path d="M366.242 233.288L354.942 239.855L343.568 233.288L354.867 226.722L366.242 233.288Z" fill="#929393"/>
<path d="M380.468 241.502L380.464 242.743L369.165 249.309L369.169 248.069L380.468 241.502Z" fill="#686868"/>
<path d="M369.169 248.068L369.166 249.309L357.791 242.742L357.795 241.501L369.169 248.068Z" fill="#4F4D4D"/>
<path d="M380.468 241.502L369.168 248.069L357.794 241.501L369.093 234.935L380.468 241.502Z" fill="#929393"/>
<path d="M394.662 249.698L394.659 250.938L383.359 257.505L383.363 256.264L394.662 249.698Z" fill="#686868"/>
<path d="M383.362 256.264L383.359 257.504L371.984 250.938L371.988 249.696L383.362 256.264Z" fill="#4F4D4D"/>
<path d="M394.661 249.697L383.361 256.264L371.987 249.697L383.286 243.13L394.661 249.697Z" fill="#929393"/>
<path d="M408.888 257.91L408.885 259.152L397.585 265.718L397.589 264.477L408.888 257.91Z" fill="#686868"/>
<path d="M397.588 264.477L397.585 265.718L386.21 259.152L386.214 257.91L397.588 264.477Z" fill="#4F4D4D"/>
<path d="M408.889 257.91L397.589 264.477L386.215 257.909L397.514 251.344L408.889 257.91Z" fill="#929393"/>
<path d="M423.081 266.105L423.077 267.347L411.778 273.913L411.781 272.672L423.081 266.105Z" fill="#686868"/>
<path d="M411.781 272.672L411.777 273.913L400.403 267.346L400.406 266.104L411.781 272.672Z" fill="#4F4D4D"/>
<path d="M423.08 266.105L411.781 272.672L400.407 266.104L411.706 259.539L423.08 266.105Z" fill="#929393"/>
<path d="M323.077 225.45L323.074 226.692L311.774 233.258L311.778 232.017L323.077 225.45Z" fill="#686868"/>
<path d="M311.778 232.017L311.774 233.258L300.4 226.691L300.403 225.45L311.778 232.017Z" fill="#4F4D4D"/>
<path d="M323.078 225.449L311.779 232.016L300.405 225.449L311.704 218.883L323.078 225.449Z" fill="#929393"/>
<path d="M337.301 233.663L337.298 234.904L325.999 241.471L326.002 240.229L337.301 233.663Z" fill="#686868"/>
<path d="M326.002 240.229L325.999 241.471L314.592 234.885L314.596 233.644L326.002 240.229Z" fill="#4F4D4D"/>
<path d="M337.302 233.663L326.003 240.229L314.596 233.644L325.895 227.077L337.302 233.663Z" fill="#929393"/>
<path d="M394.078 266.479L394.074 267.72L382.807 274.269L382.81 273.027L394.078 266.479Z" fill="#686868"/>
<path d="M382.81 273.027L382.806 274.269L328.818 243.099L328.822 241.858L382.81 273.027Z" fill="#4F4D4D"/>
<path d="M394.078 266.479L382.81 273.027L328.823 241.858L340.09 235.31L394.078 266.479Z" fill="#929393"/>
<path d="M408.336 274.674L408.332 275.915L397.033 282.482L397.036 281.24L408.336 274.674Z" fill="#686868"/>
<path d="M397.037 281.24L397.033 282.481L385.659 275.914L385.662 274.673L397.037 281.24Z" fill="#4F4D4D"/>
<path d="M408.336 274.674L397.037 281.24L385.663 274.674L396.962 268.107L408.336 274.674Z" fill="#929393"/>
<path d="M437.306 274.318L437.303 275.559L411.258 290.695L411.262 289.454L437.306 274.318Z" fill="#686868"/>
<path d="M411.262 289.453L411.258 290.694L399.852 284.109L399.855 282.868L411.262 289.453Z" fill="#4F4D4D"/>
<path d="M437.306 274.319L411.261 289.454L399.855 282.868L425.9 267.733L437.306 274.319Z" fill="#929393"/>
<path d="M451.533 282.532L451.53 283.773L440.23 290.339L440.234 289.099L451.533 282.532Z" fill="#686868"/>
<path d="M440.234 289.098L440.23 290.339L428.824 283.753L428.827 282.512L440.234 289.098Z" fill="#4F4D4D"/>
<path d="M451.534 282.532L440.235 289.098L428.828 282.512L440.127 275.946L451.534 282.532Z" fill="#929393"/>
<path d="M465.727 290.727L465.723 291.968L454.424 298.534L454.428 297.293L465.727 290.727Z" fill="#686868"/>
<path d="M454.428 297.293L454.424 298.534L443.049 291.967L443.053 290.726L454.428 297.293Z" fill="#4F4D4D"/>
<path d="M465.727 290.727L454.428 297.293L443.053 290.726L454.352 284.159L465.727 290.727Z" fill="#929393"/>
<path d="M436.788 291.101L436.784 292.342L425.485 298.909L425.489 297.667L436.788 291.101Z" fill="#686868"/>
<path d="M425.488 297.667L425.485 298.909L414.078 292.323L414.081 291.082L425.488 297.667Z" fill="#4F4D4D"/>
<path d="M436.789 291.101L425.49 297.667L414.082 291.081L425.382 284.515L436.789 291.101Z" fill="#929393"/>
<path d="M450.98 299.295L450.977 300.537L439.678 307.104L439.681 305.862L450.98 299.295Z" fill="#686868"/>
<path d="M439.681 305.862L439.678 307.104L428.303 300.536L428.307 299.295L439.681 305.862Z" fill="#4F4D4D"/>
<path d="M450.981 299.296L439.682 305.862L428.307 299.296L439.607 292.729L450.981 299.296Z" fill="#929393"/>
<path d="M479.953 298.94L479.95 300.182L453.905 315.317L453.908 314.076L479.953 298.94Z" fill="#686868"/>
<path d="M453.908 314.075L453.904 315.317L442.498 308.731L442.502 307.49L453.908 314.075Z" fill="#4F4D4D"/>
<path d="M479.953 298.94L453.909 314.076L442.502 307.49L468.547 292.355L479.953 298.94Z" fill="#929393"/>
<path d="M308.278 272.964L332.548 258.831C333.444 258.349 334.478 258.349 335.374 258.831L384.19 287.029C384.879 287.444 385.086 288.205 384.741 288.824C384.672 288.477 384.534 288.272 384.19 288.067L335.374 259.865C334.478 259.383 333.444 259.383 332.548 259.865L308.278 273.93C308.002 274.068 307.864 274.276 307.727 274.553C307.451 274.001 307.658 273.311 308.278 272.964Z" fill="#B0AFB0"/>
<path d="M332.548 259.864C333.444 259.383 334.478 259.383 335.374 259.864L384.19 288.066C384.534 288.271 384.673 288.477 384.741 288.824C384.672 289.099 384.466 289.376 384.19 289.514L359.92 303.647C359.093 304.132 357.99 304.132 357.163 303.647L308.347 275.448C308.003 275.24 307.727 274.896 307.727 274.553C307.864 274.277 308.002 274.068 308.278 273.93L332.548 259.864Z" fill="#B9B9BA"/>
<g clip-path="url(#clip0_215_4)">
<path d="M132.876 79.8405V97.858C132.876 98.5466 133.331 99.2315 134.234 99.7583C136.052 100.816 139.01 100.816 140.839 99.7583C141.761 99.2277 142.22 98.5278 142.216 97.8317V79.8142C142.216 80.5104 141.757 81.2103 140.839 81.7409C139.01 82.7983 136.052 82.7983 134.234 81.7409C133.331 81.2178 132.879 80.5292 132.876 79.8405Z" fill="#4C5671"/>
<path d="M134.253 77.9139C136.082 76.8565 139.04 76.8565 140.857 77.9139C142.675 78.9713 142.668 80.6835 140.835 81.7409C139.006 82.7983 136.048 82.7983 134.23 81.7409C132.412 80.6835 132.424 78.9713 134.253 77.9139Z" fill="#B4BED7"/>
<path d="M134.648 38.7329V79.4641C134.648 79.8893 134.93 80.3183 135.491 80.6419C136.62 81.2967 138.453 81.2967 139.59 80.6419C140.162 80.3108 140.448 79.878 140.444 79.4453V38.7141C140.444 39.1469 140.162 39.5796 139.59 39.9108C138.453 40.5655 136.62 40.5655 135.491 39.9108C134.93 39.5834 134.652 39.1582 134.648 38.7329Z" fill="#4C5671"/>
<path d="M135.502 37.5362C136.639 36.8815 138.471 36.8815 139.6 37.5362C140.729 38.191 140.722 39.256 139.585 39.9107C138.449 40.5655 136.616 40.5655 135.487 39.9107C134.358 39.256 134.365 38.191 135.502 37.5362Z" fill="#B4BED7"/>
<path d="M197.046 42.7934V60.8109C197.046 61.4995 197.501 62.1844 198.404 62.7112C200.222 63.7686 203.18 63.7686 205.009 62.7112C205.931 62.1806 206.39 61.4807 206.387 60.7845V42.7671C206.387 43.4633 205.927 44.1632 205.009 44.6938C203.18 45.7512 200.222 45.7512 198.404 44.6938C197.501 44.1707 197.05 43.4821 197.046 42.7934Z" fill="#4C5671"/>
<path d="M198.423 40.8705C200.252 39.813 203.21 39.813 205.028 40.8705C206.845 41.9279 206.838 43.6401 205.005 44.6975C203.176 45.7549 200.218 45.7549 198.4 44.6975C196.582 43.6401 196.594 41.9279 198.423 40.8705Z" fill="#B4BED7"/>
<path d="M198.818 1.68595V42.4171C198.818 42.8423 199.101 43.2713 199.661 43.595C200.79 44.2497 202.623 44.2497 203.76 43.595C204.332 43.2638 204.618 42.8311 204.614 42.3983V1.6709C204.614 2.10365 204.332 2.5364 203.76 2.86755C202.623 3.52232 200.79 3.52232 199.661 2.86755C199.101 2.54016 198.822 2.11494 198.818 1.68971V1.68595Z" fill="#4C5671"/>
<path d="M199.672 0.49303C200.809 -0.161739 202.642 -0.161739 203.771 0.49303C204.9 1.1478 204.892 2.21274 203.756 2.86751C202.619 3.52228 200.786 3.52228 199.657 2.86751C198.528 2.21274 198.536 1.1478 199.672 0.49303Z" fill="#B4BED7"/>
<path d="M113.347 137.479V143.33C113.385 146.488 115.466 149.645 119.628 152.087L169.942 181.33C178.304 186.173 191.976 186.173 200.41 181.33L291.952 128.474C296.186 126.032 298.304 122.803 298.304 119.612L298.267 113.764C298.267 116.959 296.148 120.188 291.914 122.626L200.406 175.482C191.973 180.325 178.3 180.325 169.938 175.482L119.591 146.235C115.428 143.797 113.347 140.64 113.347 137.479Z" fill="#B4BED7"/>
<path d="M119.696 128.579C111.266 133.445 111.22 141.355 119.598 146.224L169.926 175.471C178.304 180.34 191.961 180.34 200.391 175.471L291.921 122.63C300.351 117.764 300.397 109.851 292.019 104.985L241.691 75.7387C233.314 70.8693 219.656 70.8693 211.226 75.7387L119.692 128.579H119.696Z" fill="#E3E7F0"/>
<path d="M114.058 116.677V136.083C114.092 139.218 116.158 142.348 120.291 144.772L170.216 173.792C178.515 178.598 192.082 178.598 200.448 173.792L291.289 121.339C295.493 118.916 297.593 115.714 297.593 112.545L297.559 93.1428C297.559 96.3113 295.459 99.5174 291.256 101.937L200.448 154.386C192.078 159.192 178.511 159.192 170.216 154.386L120.257 125.366C116.125 122.946 114.062 119.812 114.062 116.677H114.058Z" fill="#4C5671"/>
<path d="M113.347 110.49V116.342C113.385 119.499 115.466 122.656 119.628 125.098L169.942 154.341C178.304 159.184 191.976 159.184 200.41 154.341L291.952 101.485C296.186 99.0432 298.304 95.8145 298.304 92.6234L298.267 86.7756C298.267 89.9705 296.148 93.1991 291.914 95.6376L200.406 148.493C191.973 153.336 178.3 153.336 169.938 148.493L119.591 119.247C115.428 116.808 113.347 113.651 113.347 110.49Z" fill="#B4BED7"/>
<path d="M119.696 101.591C111.266 106.456 111.22 114.366 119.598 119.236L169.926 148.482C178.304 153.351 191.961 153.351 200.391 148.482L291.921 95.6415C300.351 90.7758 300.397 82.8622 292.019 77.9965L241.691 48.7502C233.314 43.8808 219.656 43.8808 211.226 48.7502L119.692 101.591H119.696Z" fill="#E3E7F0"/>
<path d="M207.963 158.48L207.975 162.368L200.519 166.669L200.508 162.782L207.963 158.48Z" fill="#FFDD94"/>
<path d="M219.419 151.869L219.431 155.756L211.975 160.057L211.964 156.17L219.419 151.869Z" fill="#FFDD94"/>
<path d="M230.856 145.269L230.868 149.156L223.412 153.457L223.401 149.57L230.856 145.269Z" fill="#FFDD94"/>
<path d="M242.293 138.664L242.305 142.552L234.868 146.845L234.857 142.958L242.293 138.664Z" fill="#FE91AB"/>
<path d="M253.749 132.053L253.76 135.94L246.305 140.241L246.294 136.354L253.749 132.053Z" fill="#FE91AB"/>
<path d="M283.785 110.626C286.228 109.215 288.215 110.347 288.222 113.155C288.23 115.962 286.258 119.379 283.815 120.79C281.373 122.201 279.386 121.068 279.378 118.261C279.371 115.454 281.343 112.037 283.785 110.626Z" fill="#272E3A"/>
<path d="M286.277 112.684C285.753 112.38 285.027 112.425 284.225 112.884C282.634 113.802 281.346 116.03 281.354 117.859C281.354 118.765 281.678 119.405 282.193 119.706L285.102 121.396C284.587 121.095 284.263 120.455 284.263 119.548C284.259 117.719 285.543 115.492 287.135 114.573C287.936 114.111 288.663 114.069 289.186 114.374L286.277 112.684Z" fill="#96D696"/>
<path d="M287.135 114.577C288.727 113.659 290.021 114.397 290.025 116.225C290.029 118.054 288.745 120.282 287.153 121.2C285.561 122.118 284.267 121.381 284.263 119.552C284.259 117.723 285.543 115.495 287.135 114.577Z" fill="#77CB77"/>
<path d="M173.05 105.196C166.103 109.305 166.065 115.906 173.092 119.988C180.118 124.071 191.6 124.071 198.675 119.988L249.922 90.4034C257.038 86.2942 257.072 79.6449 250.046 75.562C242.805 71.3549 230.74 71.4264 223.657 76.0248C215.027 73.5788 202.563 75.1894 197.836 81.2818C188.898 79.1782 178.379 80.3749 171.473 84.3637C161.944 89.8653 161.892 98.8138 171.36 104.315C171.91 104.635 172.497 104.929 173.046 105.196H173.05Z" fill="#7BB1FF"/>
<path d="M209.345 98.4488C207.583 99.4648 207.576 101.102 209.326 102.118C211.057 103.122 213.898 103.134 215.66 102.118C217.421 101.102 217.391 99.4648 215.66 98.4601C213.91 97.444 211.106 97.4328 209.345 98.4488Z" fill="white"/>
<path d="M186.467 99.5438C186.482 100.018 187.148 100.406 187.95 100.406C188.559 100.406 189.459 100.135 189.462 99.5325C189.538 90.9452 202.533 86.9564 211.279 86.9376C211.915 86.9376 212.769 86.693 212.773 86.0759C212.796 85.6017 212.13 85.2141 211.29 85.2141C201.362 85.2141 186.523 89.7561 186.471 99.5438H186.467Z" fill="white"/>
<path d="M193.181 99.9615C193.181 100.447 193.843 100.834 194.682 100.834C195.269 100.827 196.169 100.556 196.176 99.9728C196.21 93.7412 205.611 90.8398 211.983 90.8474C212.57 90.8474 213.492 90.5614 213.496 89.9743C213.496 89.4889 212.833 89.1013 211.994 89.1013C204.358 89.1013 193.245 92.5633 193.181 99.9615Z" fill="white"/>
<path d="M199.891 100.383C199.906 100.857 200.572 101.245 201.393 101.256C201.991 101.249 202.879 100.97 202.905 100.383C202.951 96.6727 208.818 94.746 212.683 94.7385C213.3 94.7197 214.139 94.4826 214.196 93.8655C214.181 93.3913 213.515 93.0037 212.694 92.9924C207.527 93.0263 199.97 95.3067 199.891 100.383Z" fill="white"/>
</g>
<defs>
<filter id="filter0_f_215_4" x="183.4" y="234.388" width="413.328" height="229.612" filterUnits="userSpaceOnUse" color-interpolation-filters="sRGB">
<feFlood flood-opacity="0" result="BackgroundImageFix"/>
<feBlend mode="normal" in="SourceGraphic" in2="BackgroundImageFix" result="shape"/>
<feGaussianBlur stdDeviation="27" result="effect1_foregroundBlur_215_4"/>
</filter>
<filter id="filter1_f_215_4" x="0" y="89.4326" width="316.218" height="190.933" filterUnits="userSpaceOnUse" color-interpolation-filters="sRGB">
<feFlood flood-opacity="0" result="BackgroundImageFix"/>
<feBlend mode="normal" in="SourceGraphic" in2="BackgroundImageFix" result="shape"/>
<feGaussianBlur stdDeviation="27" result="effect1_foregroundBlur_215_4"/>
</filter>
<clipPath id="clip0_215_4">
<rect width="184.961" height="184.961" fill="white" transform="matrix(-1 0 0 1 298.304 0)"/>
</clipPath>
</defs>
</svg>
